<svg width="20" height="20" viewBox="0 0 20 20" fill="none" xmlns="http://www.w3.org/2000/svg">
<g id="Minimalistic Magnifer">
<path id="Vector" fill-rule="evenodd" clip-rule="evenodd" d="M9.58366 2.29175C5.55658 2.29175 2.29199 5.55634 2.29199 9.58342C2.29199 13.6105 5.55658 16.8751 9.58366 16.8751C13.6107 16.8751 16.8753 13.6105 16.8753 9.58342C16.8753 5.55634 13.6107 2.29175 9.58366 2.29175ZM1.04199 9.58342C1.04199 4.86598 4.86623 1.04175 9.58366 1.04175C14.3011 1.04175 18.1253 4.86598 18.1253 9.58342C18.1253 14.3008 14.3011 18.1251 9.58366 18.1251C4.86623 18.1251 1.04199 14.3008 1.04199 9.58342ZM16.2251 16.2248C16.4691 15.9807 16.8649 15.9807 17.1089 16.2248L18.7756 17.8915C19.0197 18.1356 19.0197 18.5313 18.7756 18.7754C18.5315 19.0194 18.1358 19.0194 17.8917 18.7754L16.2251 17.1087C15.981 16.8646 15.981 16.4689 16.2251 16.2248Z" fill="url(#paint0_linear_242_6291)"/>
</g>
<defs>
<linearGradient id="paint0_linear_242_6291" x1="14.6704" y1="25.9798" x2="-26.7693" y2="-15.1279" gradientUnits="userSpaceOnUse">
<stop stop-color="#052449"/>
<stop offset="1" stop-color="#509AF2"/>
</linearGradient>
</defs>
</svg>
