<svg width="42" height="42" viewBox="0 0 42 42" fill="none" xmlns="http://www.w3.org/2000/svg">
<g clip-path="url(#clip0_324_1646)">
<path d="M35.847 6.14852C27.6448 -2.05124 14.3483 -2.04927 6.14852 6.15303C-2.05124 14.3553 -2.04927 27.6518 6.15303 35.8515C14.3553 44.0513 27.6518 44.0493 35.8515 35.847C39.7895 31.9078 42.0013 26.5655 42 20.9955C41.9989 15.4264 39.7856 10.0859 35.847 6.14852ZM31.8038 29.2528L31.801 29.2556V29.2486L30.737 30.3056C29.3609 31.699 27.3568 32.2724 25.4519 31.8176C23.5328 31.3039 21.7085 30.4862 20.048 29.3956C18.5053 28.4097 17.0757 27.2571 15.785 25.9586C14.5974 24.7797 13.5305 23.4852 12.5999 22.0946C11.5821 20.5982 10.7765 18.968 10.2059 17.2505C9.55191 15.2329 10.0939 13.019 11.606 11.5316L12.8519 10.2856C13.1984 9.93762 13.7613 9.93639 14.1092 10.2828L14.1119 10.2856L18.0459 14.2196C18.3939 14.566 18.3951 15.1289 18.0487 15.4768L18.0459 15.4796L15.7359 17.7896C15.0731 18.4452 14.9898 19.487 15.5399 20.2396C16.3754 21.3862 17.3 22.4652 18.305 23.4666C19.4254 24.5919 20.6435 25.6156 21.9449 26.5257C22.6969 27.0502 23.7164 26.9617 24.3669 26.3157L26.5999 24.0477C26.9463 23.6997 27.5092 23.6984 27.8571 24.0449L27.8599 24.0477L31.8009 27.9957C32.149 28.342 32.1502 28.9048 31.8038 29.2528Z" fill="url(#paint0_linear_324_1646)"/>
</g>
<defs>
<linearGradient id="paint0_linear_324_1646" x1="0.0775482" y1="21.088" x2="42.0771" y2="20.9321" gradientUnits="userSpaceOnUse">
<stop stop-color="#FFAF61"/>
<stop offset="0.2725" stop-color="#DC9A27"/>
<stop offset="0.5259" stop-color="#EDB31F"/>
<stop offset="0.8091" stop-color="#D7942A"/>
<stop offset="1" stop-color="#B06828"/>
</linearGradient>
<clipPath id="clip0_324_1646">
<rect width="42" height="42" fill="white"/>
</clipPath>
</defs>
</svg>
