<svg width="24" height="24" viewBox="0 0 24 24" fill="none" xmlns="http://www.w3.org/2000/svg">
<g clip-path="url(#clip0_324_1973)">
<path d="M12 24C18.6274 24 24 18.6274 24 12C24 5.37258 18.6274 0 12 0C5.37258 0 0 5.37258 0 12C0 18.6274 5.37258 24 12 24Z" fill="url(#paint0_linear_324_1973)"/>
<path d="M14.5505 5.33398H9.45718C7.18518 5.33398 5.33984 7.17932 5.33984 9.45132V14.5447C5.33984 16.8167 7.18518 18.662 9.45718 18.662H14.5505C16.8225 18.662 18.6678 16.8167 18.6678 14.5447V9.45132C18.6678 7.17932 16.8225 5.33398 14.5505 5.33398ZM17.1798 14.55C17.1798 16.0007 16.0012 17.1847 14.5452 17.1847H9.45184C8.00118 17.1847 6.81718 16.006 6.81718 14.55V9.45665C6.81718 8.00598 7.99584 6.82198 9.45184 6.82198H14.5452C15.9958 6.82198 17.1798 8.00065 17.1798 9.45665V14.55Z" fill="white"/>
<path d="M12.0017 8.59277C10.1244 8.59277 8.59375 10.1234 8.59375 12.0008C8.59375 13.8781 10.1244 15.4088 12.0017 15.4088C13.8791 15.4088 15.4097 13.8781 15.4097 12.0008C15.4097 10.1234 13.8791 8.59277 12.0017 8.59277ZM12.0017 14.0701C10.8604 14.0701 9.93242 13.1421 9.93242 12.0008C9.93242 10.8594 10.8604 9.93144 12.0017 9.93144C13.1431 9.93144 14.0711 10.8594 14.0711 12.0008C14.0711 13.1421 13.1431 14.0701 12.0017 14.0701Z" fill="white"/>
<path d="M15.6669 8.96576C15.9809 8.91486 16.1941 8.61907 16.1432 8.30509C16.0923 7.99111 15.7966 7.77784 15.4826 7.82874C15.1686 7.87964 14.9553 8.17543 15.0062 8.48941C15.0571 8.80339 15.3529 9.01666 15.6669 8.96576Z" fill="white"/>
</g>
<defs>
<linearGradient id="paint0_linear_324_1973" x1="2.86288" y1="21.1371" x2="19.9162" y2="4.08379" gradientUnits="userSpaceOnUse">
<stop stop-color="#FEE411"/>
<stop offset="0.0518459" stop-color="#FEDB16"/>
<stop offset="0.1381" stop-color="#FEC125"/>
<stop offset="0.2481" stop-color="#FE983D"/>
<stop offset="0.3762" stop-color="#FE5F5E"/>
<stop offset="0.5" stop-color="#FE2181"/>
<stop offset="1" stop-color="#9000DC"/>
</linearGradient>
<clipPath id="clip0_324_1973">
<rect width="24" height="24" fill="white"/>
</clipPath>
</defs>
</svg>
