<svg width="20" height="20" viewBox="0 0 20 20" fill="none" xmlns="http://www.w3.org/2000/svg">
<path d="M12.9635 12.1231L12.5839 12.5227C12.5839 12.5227 11.6818 13.4725 9.21927 10.8799C6.75676 8.28736 7.65892 7.33756 7.65892 7.33756L7.89793 7.08593C8.48673 6.46604 8.54223 5.4708 8.02853 4.74425L6.97771 3.25801C6.3419 2.35875 5.1133 2.23996 4.38454 3.0072L3.07654 4.38428C2.71519 4.76471 2.47304 5.25788 2.50241 5.80495C2.57753 7.20455 3.1756 10.2159 6.5128 13.7293C10.0518 17.4552 13.3724 17.6033 14.7302 17.4692C15.1597 17.4269 15.5333 17.1952 15.8343 16.8783L17.0181 15.632C17.8171 14.7908 17.5918 13.3485 16.5694 12.76L14.9774 11.8436C14.306 11.4572 13.4881 11.5707 12.9635 12.1231Z" fill="url(#paint0_linear_510_599)"/>
<path d="M11.0495 1.56673C11.1047 1.22599 11.4268 0.994843 11.7676 1.05001C11.7886 1.05404 11.8565 1.06673 11.8921 1.07465C11.9632 1.09048 12.0624 1.11486 12.186 1.15089C12.4333 1.22292 12.7789 1.34159 13.1935 1.53171C14.0238 1.91233 15.1286 2.57817 16.2751 3.72467C17.4216 4.87117 18.0874 5.97602 18.4681 6.80625C18.6582 7.22093 18.7769 7.56643 18.8489 7.81375C18.8849 7.93742 18.9093 8.03661 18.9251 8.10772C18.9331 8.14327 18.9388 8.17182 18.9429 8.19291L18.9477 8.21891C19.0028 8.55965 18.7738 8.89508 18.4331 8.95025C18.0933 9.00525 17.7732 8.77523 17.7167 8.43608C17.7149 8.42698 17.7102 8.40251 17.705 8.37944C17.6947 8.33329 17.677 8.2601 17.6488 8.16331C17.5924 7.96969 17.4944 7.68192 17.3318 7.32719C17.0069 6.6186 16.4228 5.64011 15.3912 4.60856C14.3597 3.577 13.3812 2.99284 12.6726 2.66798C12.3179 2.50535 12.0301 2.40741 11.8365 2.35101C11.7397 2.32282 11.618 2.2949 11.5719 2.28462C11.2327 2.2281 10.9945 1.9065 11.0495 1.56673Z" fill="url(#paint1_linear_510_599)"/>
<path fill-rule="evenodd" clip-rule="evenodd" d="M11.2381 4.44128C11.3329 4.10939 11.6788 3.9172 12.0107 4.01203L11.839 4.61298C12.0107 4.01203 12.0107 4.01203 12.0107 4.01203L12.0119 4.01238L12.0132 4.01275L12.016 4.01356L12.0224 4.01549L12.0389 4.02062C12.0515 4.02464 12.0672 4.02987 12.0859 4.03651C12.1233 4.04979 12.1728 4.06868 12.2335 4.09468C12.3549 4.14671 12.5208 4.22706 12.7245 4.34766C13.1324 4.58906 13.6892 4.99004 14.3434 5.64418C14.9975 6.29833 15.3985 6.85515 15.6399 7.26303C15.7605 7.46679 15.8408 7.63268 15.8929 7.75408C15.9189 7.81476 15.9378 7.86422 15.951 7.90165C15.9577 7.92036 15.9629 7.93605 15.9669 7.94861L15.9721 7.9651L15.974 7.97156L15.9748 7.97434L15.9752 7.97562C15.9752 7.97562 15.9755 7.97682 15.3746 8.14852L15.9755 7.97682C16.0703 8.30871 15.8782 8.65464 15.5463 8.74947C15.2172 8.84349 14.8743 8.65536 14.7761 8.32864L14.773 8.31966C14.7686 8.30714 14.7594 8.28249 14.7439 8.24648C14.7131 8.17454 14.6572 8.05685 14.5642 7.89969C14.3784 7.58573 14.0428 7.11136 13.4595 6.52807C12.8762 5.94477 12.4018 5.60918 12.0879 5.42338C11.9307 5.33036 11.813 5.27445 11.7411 5.24361C11.7051 5.22818 11.6804 5.21899 11.6679 5.21455L11.6589 5.21147C11.3322 5.11323 11.1441 4.77036 11.2381 4.44128Z" fill="url(#paint2_linear_510_599)"/>
<defs>
<linearGradient id="paint0_linear_510_599" x1="13.9098" y1="23.3784" x2="-20.7838" y2="-11.0374" gradientUnits="userSpaceOnUse">
<stop stop-color="#052449"/>
<stop offset="1" stop-color="#509AF2"/>
</linearGradient>
<linearGradient id="paint1_linear_510_599" x1="17.0616" y1="12.0608" x2="-1.24849" y2="-6.09748" gradientUnits="userSpaceOnUse">
<stop stop-color="#052449"/>
<stop offset="1" stop-color="#509AF2"/>
</linearGradient>
<linearGradient id="paint2_linear_510_599" x1="17.0616" y1="12.0608" x2="-1.24849" y2="-6.09748" gradientUnits="userSpaceOnUse">
<stop stop-color="#052449"/>
<stop offset="1" stop-color="#509AF2"/>
</linearGradient>
</defs>
</svg>
