<svg width="16" height="17" viewBox="0 0 16 17" fill="none" xmlns="http://www.w3.org/2000/svg">
<g clip-path="url(#clip0_324_1941)">
<path d="M12.1643 11.0843C11.6416 10.5683 10.989 10.5683 10.4696 11.0843C10.0734 11.4772 9.67723 11.8701 9.28769 12.2696C9.18114 12.3795 9.09125 12.4028 8.9614 12.3295C8.70503 12.1897 8.43202 12.0765 8.18564 11.9233C7.03698 11.2009 6.07477 10.2719 5.22243 9.2265C4.79959 8.7071 4.42336 8.15108 4.16033 7.52515C4.10706 7.39863 4.11705 7.31539 4.22026 7.21218C4.61647 6.82929 5.00268 6.43642 5.39223 6.04354C5.93493 5.49751 5.93493 4.85826 5.3889 4.3089C5.07926 3.99593 4.76962 3.68962 4.45998 3.37665C4.14036 3.05703 3.82406 2.73407 3.5011 2.41777C2.97838 1.90837 2.32581 1.90837 1.80641 2.4211C1.40688 2.81398 1.02399 3.21684 0.617799 3.60306C0.241571 3.95931 0.0517928 4.39546 0.0118394 4.90487C-0.0514202 5.7339 0.151676 6.51632 0.438009 7.27877C1.02399 8.85693 1.91628 10.2586 2.99836 11.5438C4.45998 13.2818 6.20462 14.6568 8.24557 15.649C9.1645 16.0951 10.1167 16.4381 11.1522 16.4947C11.8647 16.5346 12.484 16.3548 12.98 15.7988C13.3196 15.4193 13.7025 15.073 14.0621 14.7101C14.5948 14.1707 14.5982 13.5182 14.0688 12.9854C13.4362 12.3495 12.8003 11.7169 12.1643 11.0843Z" fill="url(#paint0_linear_324_1941)"/>
<path d="M11.5278 8.43077L12.7564 8.22101C12.5633 7.09233 12.0306 6.07019 11.2215 5.2578C10.3658 4.40213 9.28378 3.86276 8.09183 3.69629L7.9187 4.93151C8.84096 5.06136 9.67998 5.47754 10.3425 6.1401C10.9685 6.76604 11.378 7.55845 11.5278 8.43077Z" fill="url(#paint1_linear_324_1941)"/>
<path d="M13.4498 3.09031C12.0315 1.67197 10.2369 0.776344 8.25589 0.5L8.08276 1.73523C9.7941 1.97495 11.3456 2.75071 12.5709 3.97262C13.7328 5.13459 14.4953 6.60288 14.7716 8.21766L16.0002 8.00791C15.6772 6.13676 14.7949 4.43874 13.4498 3.09031Z" fill="url(#paint2_linear_324_1941)"/>
</g>
<defs>
<linearGradient id="paint0_linear_324_1941" x1="0.0269493" y1="9.29836" x2="14.4903" y2="9.2447" gradientUnits="userSpaceOnUse">
<stop stop-color="#B66F29"/>
<stop offset="0.2725" stop-color="#DC9A27"/>
<stop offset="0.5259" stop-color="#EDB31F"/>
<stop offset="0.8091" stop-color="#D7942A"/>
<stop offset="1" stop-color="#B06828"/>
</linearGradient>
<linearGradient id="paint1_linear_324_1941" x1="7.92763" y1="6.07344" x2="12.7653" y2="6.0551" gradientUnits="userSpaceOnUse">
<stop stop-color="#B66F29"/>
<stop offset="0.2725" stop-color="#DC9A27"/>
<stop offset="0.5259" stop-color="#EDB31F"/>
<stop offset="0.8091" stop-color="#D7942A"/>
<stop offset="1" stop-color="#B06828"/>
</linearGradient>
<linearGradient id="paint2_linear_324_1941" x1="8.09738" y1="4.37499" x2="16.0147" y2="4.34486" gradientUnits="userSpaceOnUse">
<stop stop-color="#B66F29"/>
<stop offset="0.2725" stop-color="#DC9A27"/>
<stop offset="0.5259" stop-color="#EDB31F"/>
<stop offset="0.8091" stop-color="#D7942A"/>
<stop offset="1" stop-color="#B06828"/>
</linearGradient>
<clipPath id="clip0_324_1941">
<rect width="16" height="16" fill="white" transform="translate(0 0.5)"/>
</clipPath>
</defs>
</svg>
