<svg width="24" height="25" viewBox="0 0 24 25" fill="none" xmlns="http://www.w3.org/2000/svg">
<path fill-rule="evenodd" clip-rule="evenodd" d="M20.3516 11.3265L18.6352 16.4758C17.425 20.1064 16.8199 21.9217 15.9325 22.4376C15.0884 22.9284 14.0458 22.9284 13.2017 22.4376C12.3143 21.9217 11.7092 20.1064 10.499 16.4758C10.3047 15.8929 10.2075 15.6014 10.0444 15.3577C9.88638 15.1216 9.68355 14.9188 9.44744 14.7607C9.20381 14.5976 8.91233 14.5005 8.32938 14.3062C4.69875 13.0959 2.88343 12.4908 2.36757 11.6035C1.87683 10.7594 1.87683 9.71679 2.36757 8.87265C2.88343 7.9853 4.69875 7.3802 8.32938 6.16999L13.4787 4.45354C17.9771 2.95408 20.2263 2.20435 21.4136 3.39162C22.6008 4.57889 21.8511 6.82808 20.3516 11.3265ZM13.0452 11.7078C12.7539 11.4133 12.7566 10.9385 13.0511 10.6472L17.2616 6.48308C17.5561 6.19182 18.031 6.19445 18.3222 6.48896C18.6135 6.78347 18.6109 7.25834 18.3164 7.5496L14.1058 11.7137C13.8113 12.005 13.3365 12.0024 13.0452 11.7078Z" fill="url(#paint0_linear_221_2117)"/>
<defs>
<linearGradient id="paint0_linear_221_2117" x1="2.03644" y1="12.8475" x2="22.0362" y2="12.7733" gradientUnits="userSpaceOnUse">
<stop stop-color="#FFAF61"/>
<stop offset="0.2725" stop-color="#DC9A27"/>
<stop offset="0.5259" stop-color="#EDB31F"/>
<stop offset="0.8091" stop-color="#D7942A"/>
<stop offset="1" stop-color="#B06828"/>
</linearGradient>
</defs>
</svg>
