<svg width="14" height="14" viewBox="0 0 14 14" fill="none" xmlns="http://www.w3.org/2000/svg">
<path d="M13.1054 12.0475L10.673 9.61516C11.4102 8.65015 11.8145 7.47964 11.8147 6.24451C11.8147 4.75604 11.235 3.35657 10.1823 2.30408C9.12979 1.25159 7.7305 0.671875 6.24185 0.671875C4.75339 0.671875 3.35391 1.25159 2.30142 2.30408C0.128693 4.47699 0.128693 8.01239 2.30142 10.1849C3.35391 11.2376 4.75339 11.8173 6.24185 11.8173C7.47699 11.8172 8.64749 11.4129 9.6125 10.6757L12.0448 13.108C12.1911 13.2545 12.3832 13.3278 12.5751 13.3278C12.767 13.3278 12.9591 13.2545 13.1054 13.108C13.3983 12.8152 13.3983 12.3403 13.1054 12.0475ZM3.36197 9.12439C1.77408 7.5365 1.77426 4.9527 3.36197 3.36462C4.1312 2.59558 5.15402 2.17188 6.24185 2.17188C7.32986 2.17188 8.35251 2.59558 9.12173 3.36462C9.89096 4.13385 10.3147 5.15668 10.3147 6.24451C10.3147 7.33252 9.89096 8.35516 9.12173 9.12439C8.35251 9.89362 7.32986 10.3173 6.24185 10.3173C5.15402 10.3173 4.1312 9.89362 3.36197 9.12439Z" fill="url(#paint0_linear_324_1643)"/>
<defs>
<linearGradient id="paint0_linear_324_1643" x1="0.695238" y1="7.02632" x2="13.3483" y2="6.97938" gradientUnits="userSpaceOnUse">
<stop stop-color="#FFAF61"/>
<stop offset="0.2725" stop-color="#DC9A27"/>
<stop offset="0.5259" stop-color="#EDB31F"/>
<stop offset="0.8091" stop-color="#D7942A"/>
<stop offset="1" stop-color="#B06828"/>
</linearGradient>
</defs>
</svg>
