<svg width="44" height="44" viewBox="0 0 44 44" fill="none" xmlns="http://www.w3.org/2000/svg">
<path d="M22 4.125C18.4647 4.125 15.0087 5.17335 12.0692 7.13748C9.12966 9.10161 6.83858 11.8933 5.48566 15.1595C4.13274 18.4258 3.77876 22.0198 4.46847 25.4872C5.15818 28.9547 6.86061 32.1397 9.36047 34.6395C11.8603 37.1394 15.0454 38.8418 18.5128 39.5315C21.9802 40.2212 25.5742 39.8673 28.8405 38.5143C32.1067 37.1614 34.8984 34.8703 36.8625 31.9308C38.8267 28.9913 39.875 25.5353 39.875 22C39.8691 17.2611 37.9839 12.7179 34.633 9.367C31.2821 6.01606 26.7389 4.13091 22 4.125ZM28.2631 23.1447L20.0131 28.6447C19.7869 28.7947 19.5215 28.8748 19.25 28.875C18.8853 28.875 18.5356 28.7301 18.2777 28.4723C18.0199 28.2144 17.875 27.8647 17.875 27.5V16.5C17.8748 16.251 17.9423 16.0066 18.0702 15.793C18.198 15.5793 18.3815 15.4044 18.601 15.2869C18.8205 15.1694 19.0678 15.1137 19.3165 15.1257C19.5652 15.1378 19.806 15.2171 20.0131 15.3553L28.2631 20.8553C28.4517 20.9808 28.6064 21.151 28.7134 21.3507C28.8204 21.5504 28.8763 21.7734 28.8763 22C28.8763 22.2266 28.8204 22.4496 28.7134 22.6493C28.6064 22.849 28.4517 23.0192 28.2631 23.1447Z" fill="#F9F9FB"/>
</svg>
