<svg width="39" height="40" viewBox="0 0 39 40" fill="none" xmlns="http://www.w3.org/2000/svg">
<path fill-rule="evenodd" clip-rule="evenodd" d="M35.2002 19.9999C35.2002 29.2047 28.0368 36.6666 19.2002 36.6666C10.3636 36.6666 3.2002 29.2047 3.2002 19.9999C3.2002 10.7952 10.3636 3.33325 19.2002 3.33325C28.0368 3.33325 35.2002 10.7952 35.2002 19.9999ZM8.73709 18.4721C9.3335 12.9997 13.7987 8.74992 19.2155 8.74992C22.6369 8.74992 25.6784 10.4465 27.6035 13.0707C28.0059 13.6192 27.9052 14.4037 27.3786 14.8229C26.852 15.242 26.0989 15.1371 25.6965 14.5886C24.2064 12.5573 21.8582 11.2499 19.2155 11.2499C15.1236 11.2499 11.7384 14.3869 11.1575 18.4721H11.7386C12.2241 18.4721 12.6618 18.7769 12.8474 19.2442C13.0331 19.7115 12.9301 20.2493 12.5866 20.6066L10.7174 22.5511C10.2489 23.0384 9.48996 23.0384 9.02147 22.5511L7.15225 20.6066C6.80871 20.2493 6.70574 19.7115 6.89138 19.2442C7.07702 18.7769 7.51469 18.4721 8.0002 18.4721H8.73709ZM29.379 17.4488C28.9105 16.9614 28.1516 16.9614 27.6831 17.4488L25.8138 19.3932C25.4703 19.7506 25.3673 20.2884 25.553 20.7557C25.7386 21.223 26.1763 21.5277 26.6618 21.5277H27.2429C26.662 25.6129 23.2768 28.7499 19.1849 28.7499C16.5545 28.7499 14.2159 27.4547 12.7248 25.4396C12.3202 24.8929 11.5667 24.7913 11.0418 25.2127C10.5169 25.6342 10.4194 26.4191 10.824 26.9659C12.7504 29.5692 15.7795 31.2499 19.1849 31.2499C24.6018 31.2499 29.0669 27.0001 29.6633 21.5277H30.4002C30.8857 21.5277 31.3234 21.223 31.509 20.7557C31.6947 20.2884 31.5917 19.7506 31.2482 19.3932L29.379 17.4488Z" fill="url(#paint0_linear_701_1703)"/>
<defs>
<linearGradient id="paint0_linear_701_1703" x1="3.25928" y1="20.0697" x2="35.2589" y2="19.9557" gradientUnits="userSpaceOnUse">
<stop stop-color="#FFAF61"/>
<stop offset="0.2725" stop-color="#DC9A27"/>
<stop offset="0.5259" stop-color="#EDB31F"/>
<stop offset="0.8091" stop-color="#D7942A"/>
<stop offset="1" stop-color="#B06828"/>
</linearGradient>
</defs>
</svg>
