<svg width="39" height="40" viewBox="0 0 39 40" fill="none" xmlns="http://www.w3.org/2000/svg">
<path opacity="0.5" d="M19.2002 26.7797L13.1659 33.288C12.3017 34.2201 11.8696 34.6861 11.5037 34.8474C10.6698 35.2148 9.74487 34.9004 9.30624 34.1002C9.11375 33.7491 9.05377 33.1157 8.9338 31.8491C8.86607 31.1339 8.8322 30.7763 8.7294 30.4768C8.49925 29.8063 8.01565 29.2847 7.39396 29.0364C7.11628 28.9256 6.78472 28.889 6.12166 28.816L6.12162 28.816C4.94718 28.6866 4.35997 28.6219 4.03441 28.4143C3.29254 27.9412 3.00096 26.9436 3.34168 26.0443C3.4912 25.6496 3.9233 25.1836 4.78749 24.2515L8.7294 20L10.7105 17.9363L19.2002 26.7797L27.6899 17.9363L29.671 20L33.6129 24.2515L33.6129 24.2515C34.4771 25.1836 34.9092 25.6496 35.0587 26.0443C35.3994 26.9436 35.1078 27.9412 34.366 28.4143C34.0404 28.6219 33.4532 28.6866 32.2788 28.816C31.6157 28.889 31.2841 28.9256 31.0064 29.0365C30.3847 29.2847 29.9011 29.8063 29.671 30.4768C29.5682 30.7763 29.5343 31.1339 29.4666 31.849L29.4666 31.8491C29.3466 33.1157 29.2866 33.7491 29.0942 34.1002C28.6555 34.9004 27.7306 35.2148 26.8967 34.8474C26.5308 34.6861 26.0987 34.2201 25.2345 33.288L19.2002 26.7797Z" fill="url(#paint0_linear_701_1577)"/>
<path fill-rule="evenodd" clip-rule="evenodd" d="M19.2 26.6666C25.3856 26.6666 30.4 21.4432 30.4 14.9999C30.4 8.5566 25.3856 3.33325 19.2 3.33325C13.0144 3.33325 8 8.5566 8 14.9999C8 21.4432 13.0144 26.6666 19.2 26.6666ZM19.2 9.99992C18.7455 9.99992 18.4415 10.568 17.8335 11.7041L17.6762 11.998C17.5035 12.3209 17.4171 12.4823 17.2824 12.5888C17.1477 12.6953 16.9799 12.7349 16.6444 12.8139L16.339 12.8859C15.1583 13.1642 14.568 13.3033 14.4276 13.7738C14.2871 14.2442 14.6896 14.7345 15.4944 15.7149L15.7027 15.9685C15.9314 16.2471 16.0458 16.3864 16.0972 16.5588C16.1487 16.7311 16.1314 16.917 16.0968 17.2887L16.0653 17.6271C15.9436 18.9352 15.8828 19.5893 16.2505 19.88C16.6182 20.1708 17.1709 19.9057 18.2763 19.3755L18.5623 19.2383C18.8764 19.0877 19.0335 19.0123 19.2 19.0123C19.3665 19.0123 19.5236 19.0877 19.8377 19.2383L20.1237 19.3755C21.2291 19.9057 21.7818 20.1708 22.1495 19.88C22.5172 19.5893 22.4564 18.9352 22.3347 17.6271L22.3032 17.2887C22.2686 16.917 22.2513 16.7311 22.3028 16.5588C22.3542 16.3864 22.4686 16.2471 22.6973 15.9685L22.9056 15.7149C23.7104 14.7345 24.1129 14.2442 23.9724 13.7738C23.832 13.3033 23.2417 13.1642 22.061 12.8859L21.7556 12.8139C21.4201 12.7349 21.2523 12.6953 21.1176 12.5888C20.9829 12.4823 20.8965 12.3209 20.7238 11.998L20.5665 11.7041C19.9585 10.568 19.6545 9.99992 19.2 9.99992Z" fill="url(#paint1_linear_701_1577)"/>
<defs>
<linearGradient id="paint0_linear_701_1577" x1="3.25928" y1="26.5038" x2="35.2578" y2="26.2812" gradientUnits="userSpaceOnUse">
<stop stop-color="#FFAF61"/>
<stop offset="0.2725" stop-color="#DC9A27"/>
<stop offset="0.5259" stop-color="#EDB31F"/>
<stop offset="0.8091" stop-color="#D7942A"/>
<stop offset="1" stop-color="#B06828"/>
</linearGradient>
<linearGradient id="paint1_linear_701_1577" x1="8.04136" y1="15.0488" x2="30.4411" y2="14.969" gradientUnits="userSpaceOnUse">
<stop stop-color="#FFAF61"/>
<stop offset="0.2725" stop-color="#DC9A27"/>
<stop offset="0.5259" stop-color="#EDB31F"/>
<stop offset="0.8091" stop-color="#D7942A"/>
<stop offset="1" stop-color="#B06828"/>
</linearGradient>
</defs>
</svg>
