<svg width="39" height="40" viewBox="0 0 39 40" fill="none" xmlns="http://www.w3.org/2000/svg">
<path d="M24.8897 24.2462L24.161 25.0453C24.161 25.0453 22.4288 26.9449 17.7008 21.7598C12.9728 16.5747 14.7049 14.6751 14.7049 14.6751L15.1638 14.1719C16.2943 12.9321 16.4009 10.9416 15.4146 9.4885L13.397 6.51602C12.1763 4.7175 9.81734 4.47991 8.41813 6.0144L5.90676 8.76856C5.21297 9.52943 4.74805 10.5158 4.80442 11.6099C4.94866 14.4091 6.09695 20.4317 12.5044 27.4586C19.2992 34.9104 25.6748 35.2065 28.2818 34.9385C29.1065 34.8537 29.8237 34.3905 30.4016 33.7567L32.6745 31.2641C34.2087 29.5815 33.7761 26.6969 31.8131 25.52L28.7563 23.6872C27.4674 22.9144 25.897 23.1414 24.8897 24.2462Z" fill="url(#paint0_linear_701_1430)"/>
<path d="M21.2154 3.13346C21.3213 2.45198 21.9398 1.98969 22.594 2.10001C22.6345 2.10809 22.7648 2.13346 22.833 2.14929C22.9696 2.18097 23.16 2.22973 23.3975 2.30177C23.8723 2.44584 24.5357 2.68318 25.3319 3.06341C26.9259 3.82467 29.0472 5.15634 31.2485 7.44934C33.4498 9.74234 34.7282 11.952 35.459 13.6125C35.824 14.4419 36.0518 15.1329 36.1902 15.6275C36.2593 15.8748 36.3061 16.0732 36.3365 16.2154C36.3517 16.2865 36.3628 16.3436 36.3706 16.3858L36.3798 16.4378C36.4857 17.1193 36.046 17.7902 35.3917 17.9005C34.7394 18.0105 34.1248 17.5505 34.0163 16.8722C34.013 16.854 34.0038 16.805 33.9939 16.7589C33.9742 16.6666 33.94 16.5202 33.8859 16.3266C33.7776 15.9394 33.5896 15.3638 33.2773 14.6544C32.6536 13.2372 31.532 11.2802 29.5514 9.21711C27.5708 7.15401 25.6921 5.98568 24.3317 5.33597C23.6506 5.01071 23.098 4.81482 22.7263 4.70203C22.5405 4.64564 22.3069 4.58979 22.2182 4.56923C21.5671 4.4562 21.1098 3.813 21.2154 3.13346Z" fill="url(#paint1_linear_701_1430)"/>
<path fill-rule="evenodd" clip-rule="evenodd" d="M21.5774 8.88257C21.7594 8.21877 22.4236 7.83441 23.0609 8.02406L22.7312 9.22597C23.0609 8.02406 23.0609 8.02406 23.0609 8.02406L23.0632 8.02475L23.0656 8.02549L23.071 8.02711L23.0834 8.03097L23.115 8.04124C23.1391 8.04928 23.1693 8.05975 23.2052 8.07302C23.2771 8.09958 23.372 8.13736 23.4885 8.18936C23.7216 8.29343 24.0401 8.45413 24.4313 8.69531C25.2145 9.17811 26.2836 9.98008 27.5395 11.2884C28.7955 12.5967 29.5654 13.7103 30.0289 14.5261C30.2604 14.9336 30.4147 15.2654 30.5146 15.5082C30.5645 15.6295 30.6008 15.7284 30.6263 15.8033C30.639 15.8407 30.649 15.8721 30.6568 15.8972L30.6666 15.9302L30.6703 15.9431L30.6719 15.9487L30.6726 15.9512C30.6726 15.9512 30.6733 15.9536 29.5194 16.297L30.6733 15.9536C30.8553 16.6174 30.4863 17.3093 29.8491 17.4989C29.2173 17.687 28.5589 17.3107 28.3703 16.6573L28.3644 16.6393C28.3559 16.6143 28.3382 16.565 28.3086 16.493C28.2494 16.3491 28.1421 16.1137 27.9635 15.7994C27.6067 15.1715 26.9624 14.2227 25.8425 13.0561C24.7225 11.8895 23.8117 11.2184 23.209 10.8468C22.9072 10.6607 22.6812 10.5489 22.5431 10.4872C22.474 10.4564 22.4267 10.438 22.4026 10.4291L22.3854 10.4229C21.7581 10.2265 21.3969 9.54073 21.5774 8.88257Z" fill="url(#paint2_linear_701_1430)"/>
<defs>
<linearGradient id="paint0_linear_701_1430" x1="4.85298" y1="20.0628" x2="33.6527" y2="19.9602" gradientUnits="userSpaceOnUse">
<stop stop-color="#FFAF61"/>
<stop offset="0.2725" stop-color="#DC9A27"/>
<stop offset="0.5259" stop-color="#EDB31F"/>
<stop offset="0.8091" stop-color="#D7942A"/>
<stop offset="1" stop-color="#B06828"/>
</linearGradient>
<linearGradient id="paint1_linear_701_1430" x1="21.2283" y1="10.0334" x2="36.4234" y2="9.97929" gradientUnits="userSpaceOnUse">
<stop stop-color="#FFAF61"/>
<stop offset="0.2725" stop-color="#DC9A27"/>
<stop offset="0.5259" stop-color="#EDB31F"/>
<stop offset="0.8091" stop-color="#D7942A"/>
<stop offset="1" stop-color="#B06828"/>
</linearGradient>
<linearGradient id="paint2_linear_701_1430" x1="21.2283" y1="10.0334" x2="36.4234" y2="9.97929" gradientUnits="userSpaceOnUse">
<stop stop-color="#FFAF61"/>
<stop offset="0.2725" stop-color="#DC9A27"/>
<stop offset="0.5259" stop-color="#EDB31F"/>
<stop offset="0.8091" stop-color="#D7942A"/>
<stop offset="1" stop-color="#B06828"/>
</linearGradient>
</defs>
</svg>
