<svg width="39" height="40" viewBox="0 0 39 40" fill="none" xmlns="http://www.w3.org/2000/svg">
<path d="M28.1245 7.38578L24.9245 5.63653C22.1155 4.10101 20.711 3.33325 19.2002 3.33325C17.6894 3.33325 16.2849 4.10101 13.4759 5.63653L12.9611 5.91792L27.238 14.416L33.6647 11.0688C32.6308 9.84908 30.9625 8.93715 28.1245 7.38578Z" fill="url(#paint0_linear_701_1612)"/>
<path d="M34.7976 13.2738L28.4002 16.6058V21.6666C28.4002 22.3569 27.8629 22.9166 27.2002 22.9166C26.5375 22.9166 26.0002 22.3569 26.0002 21.6666V17.8558L20.4002 20.7725V36.5066C21.5489 36.2086 22.8558 35.4942 24.9245 34.3633L28.1245 32.6141C31.5672 30.7321 33.2885 29.7912 34.2444 28.1004C35.2002 26.4095 35.2002 24.3055 35.2002 20.0974V19.9024C35.2002 16.748 35.2002 14.7759 34.7976 13.2738Z" fill="url(#paint1_linear_701_1612)"/>
<path d="M18.0002 36.5066V20.7725L3.60282 13.2738C3.2002 14.7759 3.2002 16.748 3.2002 19.9024V20.0974C3.2002 24.3055 3.2002 26.4095 4.15603 28.1004C5.11186 29.7912 6.83319 30.7321 10.2758 32.614L13.4759 34.3633C15.5446 35.4942 16.8515 36.2086 18.0002 36.5066Z" fill="url(#paint2_linear_701_1612)"/>
<path d="M4.7357 11.0688L19.2002 18.6024L24.658 15.7598L10.4395 7.29633L10.2759 7.38578C7.43787 8.93715 5.76964 9.84908 4.7357 11.0688Z" fill="url(#paint3_linear_701_1612)"/>
<defs>
<linearGradient id="paint0_linear_701_1612" x1="3.25928" y1="19.9894" x2="35.2589" y2="19.8749" gradientUnits="userSpaceOnUse">
<stop stop-color="#FFAF61"/>
<stop offset="0.2725" stop-color="#DC9A27"/>
<stop offset="0.5259" stop-color="#EDB31F"/>
<stop offset="0.8091" stop-color="#D7942A"/>
<stop offset="1" stop-color="#B06828"/>
</linearGradient>
<linearGradient id="paint1_linear_701_1612" x1="3.25928" y1="19.9894" x2="35.2589" y2="19.8749" gradientUnits="userSpaceOnUse">
<stop stop-color="#FFAF61"/>
<stop offset="0.2725" stop-color="#DC9A27"/>
<stop offset="0.5259" stop-color="#EDB31F"/>
<stop offset="0.8091" stop-color="#D7942A"/>
<stop offset="1" stop-color="#B06828"/>
</linearGradient>
<linearGradient id="paint2_linear_701_1612" x1="3.25928" y1="19.9894" x2="35.2589" y2="19.8749" gradientUnits="userSpaceOnUse">
<stop stop-color="#FFAF61"/>
<stop offset="0.2725" stop-color="#DC9A27"/>
<stop offset="0.5259" stop-color="#EDB31F"/>
<stop offset="0.8091" stop-color="#D7942A"/>
<stop offset="1" stop-color="#B06828"/>
</linearGradient>
<linearGradient id="paint3_linear_701_1612" x1="3.25928" y1="19.9894" x2="35.2589" y2="19.8749" gradientUnits="userSpaceOnUse">
<stop stop-color="#FFAF61"/>
<stop offset="0.2725" stop-color="#DC9A27"/>
<stop offset="0.5259" stop-color="#EDB31F"/>
<stop offset="0.8091" stop-color="#D7942A"/>
<stop offset="1" stop-color="#B06828"/>
</linearGradient>
</defs>
</svg>
