<svg width="39" height="40" viewBox="0 0 39 40" fill="none" xmlns="http://www.w3.org/2000/svg">
<path fill-rule="evenodd" clip-rule="evenodd" d="M5.40383 8.4706C4.7998 9.36705 4.7998 12.0317 4.7998 17.361V19.9855C4.7998 29.3823 11.5821 33.9424 15.8375 35.8787C16.9918 36.404 17.569 36.6666 19.1998 36.6666C20.8306 36.6666 21.4078 36.404 22.5621 35.8787C26.8175 33.9424 33.5998 29.3823 33.5998 19.9855V17.361C33.5998 12.0317 33.5998 9.36705 32.9958 8.4706C32.3918 7.57415 29.9865 6.71651 25.176 5.00124L24.2595 4.67445C21.7518 3.78032 20.498 3.33325 19.1998 3.33325C17.9016 3.33325 16.6478 3.78032 14.1402 4.67445L13.2237 5.00124C8.41312 6.71651 6.00785 7.57415 5.40383 8.4706ZM17.3778 13.9388L17.1681 14.3307C16.9377 14.7612 16.8226 14.9764 16.643 15.1185C16.4634 15.2605 16.2397 15.3132 15.7924 15.4186L15.3851 15.5146C13.8109 15.8856 13.0238 16.0711 12.8366 16.6984C12.6493 17.3257 13.1859 17.9793 14.2591 19.2865L14.5367 19.6247C14.8417 19.9962 14.9942 20.1819 15.0628 20.4117C15.1314 20.6415 15.1083 20.8893 15.0622 21.385L15.0202 21.8362C14.858 23.5803 14.7768 24.4524 15.2671 24.8401C15.7574 25.2277 16.4943 24.8743 17.9682 24.1674L18.3496 23.9845C18.7684 23.7836 18.9778 23.6832 19.1998 23.6832C19.4218 23.6832 19.6312 23.7836 20.0501 23.9845L20.4314 24.1674C21.9053 24.8743 22.6423 25.2277 23.1325 24.8401C23.6228 24.4524 23.5416 23.5803 23.3794 21.8362L23.3374 21.385C23.2913 20.8893 23.2683 20.6415 23.3369 20.4117C23.4055 20.1819 23.5579 19.9962 23.8629 19.6247L24.1405 19.2865C25.2137 17.9793 25.7503 17.3257 25.5631 16.6984C25.3758 16.0711 24.5887 15.8856 23.0145 15.5146L22.6072 15.4186C22.1599 15.3132 21.9362 15.2605 21.7566 15.1185C21.5771 14.9764 21.4619 14.7612 21.2315 14.3308L21.0218 13.9388C20.2111 12.424 19.8058 11.6666 19.1998 11.6666C18.5938 11.6666 18.1885 12.424 17.3778 13.9388Z" fill="url(#paint0_linear_701_1478)"/>
<defs>
<linearGradient id="paint0_linear_701_1478" x1="4.85298" y1="20.0697" x2="33.6527" y2="19.9774" gradientUnits="userSpaceOnUse">
<stop stop-color="#FFAF61"/>
<stop offset="0.2725" stop-color="#DC9A27"/>
<stop offset="0.5259" stop-color="#EDB31F"/>
<stop offset="0.8091" stop-color="#D7942A"/>
<stop offset="1" stop-color="#B06828"/>
</linearGradient>
</defs>
</svg>
